<svg xmlns="http://www.w3.org/2000/svg"  viewBox="0 0 100 100" width="100px" height="100px"><path fill="#c7ede6" d="M89.215,56.71C90.35,54.555,91,52.105,91,49.5c0-6.621-4.159-12.257-10.001-14.478	C80.999,35.015,81,35.008,81,35c0-11.598-9.402-21-21-21c-9.784,0-17.981,6.701-20.313,15.757C38.211,29.272,36.638,29,35,29	c-7.692,0-14.023,5.793-14.89,13.252C14.906,43.353,11,47.969,11,53.5C11,59.851,16.149,65,22.5,65c0.177,0,0.352-0.012,0.526-0.022	C23.022,65.153,23,65.324,23,65.5C23,76.822,32.178,86,43.5,86c6.437,0,12.175-2.972,15.934-7.614C61.612,80.611,64.64,82,68,82	c4.65,0,8.674-2.65,10.666-6.518C79.718,75.817,80.837,76,82,76c6.075,0,11-4.925,11-11C93,61.689,91.53,58.727,89.215,56.71z"/><path fill="#fdfcef" d="M78.5,60.5V61h3v-0.5c0,0,4.242,0,5.5,0c2.485,0,4.5-2.015,4.5-4.5c0-2.333-1.782-4.229-4.055-4.455 C87.467,51.364,87.5,51.187,87.5,51c0-2.485-2.015-4.5-4.5-4.5c-1.438,0-2.703,0.686-3.527,1.736 C79.333,45.6,77.171,43.5,74.5,43.5c-2.761,0-5,2.239-5,5c0,0.446,0.077,0.87,0.187,1.282C69.045,49.005,68.086,48.5,67,48.5 c-1.781,0-3.234,1.335-3.455,3.055C63.364,51.533,63.187,51.5,63,51.5c-2.485,0-4.5,2.015-4.5,4.5s2.015,4.5,4.5,4.5s9.5,0,9.5,0 H78.5z"/><path fill="#472b29" d="M74.5,43c-3.033,0-5.5,2.467-5.5,5.5c0,0.016,0,0.031,0,0.047C68.398,48.192,67.71,48,67,48 c-1.831,0-3.411,1.261-3.858,3.005C63.095,51.002,63.048,51,63,51c-2.757,0-5,2.243-5,5s2.243,5,5,5h15.5 c0.276,0,0.5-0.224,0.5-0.5S78.776,60,78.5,60H63c-2.206,0-4-1.794-4-4s1.794-4,4-4c0.117,0,0.23,0.017,0.343,0.032l0.141,0.019 c0.021,0.003,0.041,0.004,0.062,0.004c0.246,0,0.462-0.185,0.495-0.437C64.232,50.125,65.504,49,67,49 c0.885,0,1.723,0.401,2.301,1.1c0.098,0.118,0.241,0.182,0.386,0.182c0.078,0,0.156-0.018,0.228-0.056 c0.209-0.107,0.314-0.346,0.254-0.573C70.054,49.218,70,48.852,70,48.5c0-2.481,2.019-4.5,4.5-4.5c2.381,0,4.347,1.872,4.474,4.263 c0.011,0.208,0.15,0.387,0.349,0.45c0.05,0.016,0.101,0.024,0.152,0.024c0.15,0,0.296-0.069,0.392-0.192 C80.638,47.563,81.779,47,83,47c2.206,0,4,1.794,4,4c0,0.117-0.017,0.23-0.032,0.343l-0.019,0.141 c-0.016,0.134,0.022,0.268,0.106,0.373c0.084,0.105,0.207,0.172,0.34,0.185C89.451,52.247,91,53.949,91,56c0,2.206-1.794,4-4,4 h-5.5c-0.276,0-0.5,0.224-0.5,0.5s0.224,0.5,0.5,0.5H87c2.757,0,5-2.243,5-5c0-2.397-1.689-4.413-4.003-4.877 C87.999,51.082,88,51.041,88,51c0-2.757-2.243-5-5-5c-1.176,0-2.293,0.416-3.183,1.164C79.219,44.76,77.055,43,74.5,43L74.5,43z"/><path fill="#472b29" d="M73,50c-1.403,0-2.609,0.999-2.913,2.341C69.72,52.119,69.301,52,68.875,52 c-1.202,0-2.198,0.897-2.353,2.068C66.319,54.022,66.126,54,65.938,54c-1.529,0-2.811,1.2-2.918,2.732 C63.01,56.87,63.114,56.99,63.251,57c0.006,0,0.012,0,0.018,0c0.13,0,0.24-0.101,0.249-0.232c0.089-1.271,1.151-2.268,2.419-2.268 c0.229,0,0.47,0.042,0.738,0.127c0.022,0.007,0.045,0.01,0.067,0.01c0.055,0,0.11-0.02,0.156-0.054 C66.962,54.537,67,54.455,67,54.375c0-1.034,0.841-1.875,1.875-1.875c0.447,0,0.885,0.168,1.231,0.473 c0.047,0.041,0.106,0.063,0.165,0.063c0.032,0,0.063-0.006,0.093-0.019c0.088-0.035,0.148-0.117,0.155-0.212 C70.623,51.512,71.712,50.5,73,50.5c0.208,0,0.425,0.034,0.682,0.107c0.023,0.007,0.047,0.01,0.07,0.01 c0.109,0,0.207-0.073,0.239-0.182c0.038-0.133-0.039-0.271-0.172-0.309C73.517,50.04,73.256,50,73,50L73,50z"/><path fill="#472b29" d="M86.883,51.5c-1.326,0-2.508,0.897-2.874,2.182c-0.038,0.133,0.039,0.271,0.172,0.309 C84.205,53.997,84.228,54,84.25,54c0.109,0,0.209-0.072,0.24-0.182C84.795,52.748,85.779,52,86.883,52 c0.117,0,0.23,0.014,0.342,0.029c0.012,0.002,0.023,0.003,0.035,0.003c0.121,0,0.229-0.092,0.246-0.217 c0.019-0.137-0.077-0.263-0.214-0.281C87.158,51.516,87.022,51.5,86.883,51.5L86.883,51.5z"/><path fill="#fff" d="M17.5,51h-10C7.224,51,7,50.776,7,50.5S7.224,50,7.5,50h10c0.276,0,0.5,0.224,0.5,0.5 S17.777,51,17.5,51z"/><path fill="#fff" d="M20.5,51h-1c-0.276,0-0.5-0.224-0.5-0.5s0.224-0.5,0.5-0.5h1c0.276,0,0.5,0.224,0.5,0.5 S20.777,51,20.5,51z"/><path fill="#fff" d="M25.491,53H16.5c-0.276,0-0.5-0.224-0.5-0.5s0.224-0.5,0.5-0.5h8.991c0.276,0,0.5,0.224,0.5,0.5 S25.767,53,25.491,53z"/><path fill="#fff" d="M14.5,53h-1c-0.276,0-0.5-0.224-0.5-0.5s0.224-0.5,0.5-0.5h1c0.276,0,0.5,0.224,0.5,0.5 S14.777,53,14.5,53z"/><path fill="#fff" d="M11.5,53h-2C9.224,53,9,52.776,9,52.5S9.224,52,9.5,52h2c0.276,0,0.5,0.224,0.5,0.5 S11.777,53,11.5,53z"/><path fill="#fff" d="M17.5,55h-2c-0.276,0-0.5-0.224-0.5-0.5s0.224-0.5,0.5-0.5h2c0.276,0,0.5,0.224,0.5,0.5 S17.776,55,17.5,55z"/><path fill="#fff" d="M20.5,46c-0.177,0-0.823,0-1,0c-0.276,0-0.5,0.224-0.5,0.5c0,0.276,0.224,0.5,0.5,0.5 c0.177,0,0.823,0,1,0c0.276,0,0.5-0.224,0.5-0.5C21,46.224,20.776,46,20.5,46z"/><path fill="#fff" d="M20.5,48c-0.177,0-4.823,0-5,0c-0.276,0-0.5,0.224-0.5,0.5c0,0.276,0.224,0.5,0.5,0.5 c0.177,0,4.823,0,5,0c0.276,0,0.5-0.224,0.5-0.5C21,48.224,20.776,48,20.5,48z"/><path fill="#fff" d="M25.5,50c-0.177,0-2.823,0-3,0c-0.276,0-0.5,0.224-0.5,0.5c0,0.276,0.224,0.5,0.5,0.5 c0.177,0,2.823,0,3,0c0.276,0,0.5-0.224,0.5-0.5C26,50.224,25.776,50,25.5,50z"/><path fill="#fff" d="M74.5,24h-10c-0.276,0-0.5-0.224-0.5-0.5s0.224-0.5,0.5-0.5h10c0.276,0,0.5,0.224,0.5,0.5 S74.776,24,74.5,24z"/><path fill="#fff" d="M78.5,24h-2c-0.276,0-0.5-0.224-0.5-0.5s0.224-0.5,0.5-0.5h2c0.276,0,0.5,0.224,0.5,0.5 S78.776,24,78.5,24z"/><path fill="#fff" d="M83.5,26h-10c-0.276,0-0.5-0.224-0.5-0.5s0.224-0.5,0.5-0.5h10c0.276,0,0.5,0.224,0.5,0.5 S83.777,26,83.5,26z"/><path fill="#fff" d="M71.5,26h-1c-0.276,0-0.5-0.224-0.5-0.5s0.224-0.5,0.5-0.5h1c0.276,0,0.5,0.224,0.5,0.5 S71.776,26,71.5,26z"/><path fill="#fff" d="M68.47,26H66.5c-0.276,0-0.5-0.224-0.5-0.5s0.224-0.5,0.5-0.5h1.97c0.276,0,0.5,0.224,0.5,0.5 S68.746,26,68.47,26z"/><path fill="#fff" d="M77.5,22h-5c-0.276,0-0.5-0.224-0.5-0.5s0.224-0.5,0.5-0.5h5c0.276,0,0.5,0.224,0.5,0.5 S77.777,22,77.5,22z"/><path fill="#fff" d="M74.5,28h-2c-0.276,0-0.5-0.224-0.5-0.5s0.224-0.5,0.5-0.5h2c0.276,0,0.5,0.224,0.5,0.5 S74.776,28,74.5,28z"/><g><circle cx="54" cy="50" r="23" fill="#eeecd9"/><path fill="#472b29" d="M53.999,27.4C66.461,27.4,76.6,37.538,76.6,49.999C76.6,62.461,66.461,72.6,53.999,72.6 C41.538,72.6,31.4,62.462,31.4,50S41.538,27.4,53.999,27.4 M53.999,26C40.765,26,30,36.766,30,50s10.765,24,23.999,24 S78,63.233,78,49.999S67.234,26,53.999,26L53.999,26z"/></g><g><polygon fill="#ee3e54" points="65.44,45.12 61.56,49.7 59,47.54 54,43.32 49,47.54 46.44,49.7 42.56,45.12 49,39.69 54,35.47 59,39.69"/></g><g><path fill="#472b29" d="M52.538,69.95c-0.013,0-0.025,0-0.038-0.001c-8.686-0.651-15.896-6.782-17.941-15.256 c-0.374-1.547-0.563-3.131-0.563-4.708c0-0.807,0.05-1.622,0.148-2.421c0.034-0.274,0.284-0.478,0.557-0.435 c0.274,0.034,0.469,0.283,0.435,0.557c-0.093,0.759-0.141,1.532-0.141,2.299c0,1.498,0.18,3.003,0.535,4.474 c1.943,8.051,8.793,13.875,17.044,14.494c0.275,0.021,0.481,0.261,0.461,0.536C53.016,69.75,52.797,69.95,52.538,69.95z M62.267,68.166c-0.188,0-0.369-0.107-0.454-0.289c-0.117-0.25-0.008-0.548,0.242-0.665c2.07-0.965,3.93-2.286,5.53-3.924 c0.194-0.198,0.51-0.201,0.707-0.009c0.198,0.193,0.202,0.51,0.009,0.707c-1.685,1.726-3.644,3.116-5.823,4.132 C62.409,68.151,62.337,68.166,62.267,68.166z M69.864,61.838c-0.101,0-0.202-0.03-0.291-0.093 c-0.225-0.161-0.276-0.473-0.116-0.698c0.189-0.264,0.371-0.533,0.546-0.806c0.148-0.232,0.457-0.301,0.69-0.151 c0.232,0.148,0.3,0.458,0.151,0.69c-0.184,0.288-0.375,0.571-0.574,0.849C70.174,61.766,70.02,61.838,69.864,61.838z M73.474,51.603c-0.01,0-0.019,0-0.029-0.001c-0.276-0.016-0.486-0.252-0.471-0.527c0.02-0.351,0.03-0.704,0.03-1.059 c0-1.498-0.18-3.003-0.535-4.474c-2.067-8.564-9.656-14.546-18.454-14.546c-1.498,0-3.003,0.18-4.474,0.535 c-4.346,1.049-8.196,3.606-10.84,7.201c-0.164,0.222-0.476,0.27-0.699,0.106c-0.222-0.164-0.27-0.477-0.106-0.699 c2.784-3.784,6.837-6.476,11.412-7.58c1.547-0.374,3.131-0.563,4.708-0.563c9.261,0,17.25,6.296,19.425,15.312 c0.374,1.547,0.563,3.131,0.563,4.708c0,0.373-0.011,0.746-0.032,1.115C73.958,51.397,73.737,51.603,73.474,51.603z"/></g><path fill="#2d80d3" d="M66.15,57.89c-1.74,2.69-4.25,4.67-7.15,5.73c-1.57,0.58-3.25,0.89-5,0.89s-3.43-0.3-5-0.89	c-2.89-1.05-5.4-3.03-7.15-5.72l4.88-3.5c0.6,0.99,1.37,1.82,2.27,2.48c1.42,1.05,3.16,1.63,5,1.63s3.58-0.58,5-1.63	c0.9-0.66,1.67-1.49,2.27-2.48L66.15,57.89z"/><g><path fill="#fdfcef" d="M38.5,73.5c0,0,1.567,0,3.5,0s3.5-1.567,3.5-3.5c0-1.781-1.335-3.234-3.055-3.455 C42.473,66.366,42.5,66.187,42.5,66c0-1.933-1.567-3.5-3.5-3.5c-1.032,0-1.95,0.455-2.59,1.165 c-0.384-1.808-1.987-3.165-3.91-3.165c-2.209,0-4,1.791-4,4c0,0.191,0.03,0.374,0.056,0.558C28.128,64.714,27.592,64.5,27,64.5 c-1.228,0-2.245,0.887-2.455,2.055C24.366,66.527,24.187,66.5,24,66.5c-1.933,0-3.5,1.567-3.5,3.5s1.567,3.5,3.5,3.5s7.5,0,7.5,0 V74h7V73.5z"/><path fill="#472b29" d="M40.25,69C40.112,69,40,68.888,40,68.75c0-1.223,0.995-2.218,2.218-2.218 c0.034,0.009,0.737-0.001,1.244,0.136c0.133,0.036,0.212,0.173,0.176,0.306c-0.036,0.134-0.173,0.213-0.306,0.176 c-0.444-0.12-1.1-0.12-1.113-0.118c-0.948,0-1.719,0.771-1.719,1.718C40.5,68.888,40.388,69,40.25,69z"/><circle cx="33.5" cy="73.5" r=".5" fill="#472b29"/><path fill="#472b29" d="M42,74h-3.5c-0.276,0-0.5-0.224-0.5-0.5s0.224-0.5,0.5-0.5H42c1.654,0,3-1.346,3-3 c0-1.496-1.125-2.768-2.618-2.959c-0.134-0.018-0.255-0.088-0.336-0.196s-0.115-0.244-0.094-0.377C41.975,66.314,42,66.16,42,66 c0-1.654-1.346-3-3-3c-0.85,0-1.638,0.355-2.219,1c-0.125,0.139-0.321,0.198-0.5,0.148c-0.182-0.049-0.321-0.195-0.36-0.379 C35.58,62.165,34.141,61,32.5,61c-1.93,0-3.5,1.57-3.5,3.5c0,0.143,0.021,0.28,0.041,0.418c0.029,0.203-0.063,0.438-0.242,0.54 c-0.179,0.102-0.396,0.118-0.556-0.01C27.878,65.155,27.449,65,27,65c-0.966,0-1.792,0.691-1.963,1.644 c-0.048,0.267-0.296,0.446-0.569,0.405C24.314,67.025,24.16,67,24,67c-1.654,0-3,1.346-3,3s1.346,3,3,3h7.5 c0.276,0,0.5,0.224,0.5,0.5S31.776,74,31.5,74H24c-2.206,0-4-1.794-4-4s1.794-4,4-4c0.059,0,0.116,0.002,0.174,0.006 C24.588,64.82,25.711,64,27,64c0.349,0,0.689,0.061,1.011,0.18C28.176,61.847,30.126,60,32.5,60c1.831,0,3.466,1.127,4.153,2.774 C37.333,62.276,38.155,62,39,62c2.206,0,4,1.794,4,4c0,0.048-0.001,0.095-0.004,0.142C44.739,66.59,46,68.169,46,70 C46,72.206,44.206,74,42,74z"/><path fill="#472b29" d="M36.5,73c-0.159,0-0.841,0-1,0c-0.276,0-0.5,0.224-0.5,0.5c0,0.276,0.224,0.5,0.5,0.5 c0.159,0,0.841,0,1,0c0.276,0,0.5-0.224,0.5-0.5C37,73.224,36.776,73,36.5,73z"/></g><polygon fill="#fc5672" points="49,39.69 49,47.54 46.44,49.7 42.56,45.12"/><path fill="#6869ad" d="M49,56.88v6.74c-2.89-1.05-5.4-3.03-7.15-5.72l4.88-3.5C47.33,55.39,48.1,56.22,49,56.88z"/><polygon fill="#f47c22" points="61.56,49.7 59,47.54 59,39.69 65.44,45.12"/><path fill="#00a5a5" d="M66.15,57.89c-1.74,2.69-4.25,4.67-7.15,5.73v-6.74c0.9-0.66,1.67-1.49,2.27-2.48L66.15,57.89z"/><g><path fill="#472b29" d="M61.565,49.952c-0.057,0-0.114-0.02-0.161-0.059L54,43.645l-1.445,1.219 c-0.104,0.089-0.263,0.077-0.352-0.03c-0.089-0.105-0.076-0.263,0.03-0.352l1.606-1.355c0.093-0.079,0.229-0.079,0.322,0 l7.374,6.223l3.547-4.203L54,35.793l-11.083,9.354l3.547,4.203l3.476-2.933c0.105-0.088,0.263-0.076,0.352,0.03 s0.076,0.263-0.03,0.352l-3.667,3.094c-0.105,0.09-0.263,0.076-0.352-0.03l-3.87-4.585c-0.043-0.051-0.064-0.116-0.058-0.182 c0.005-0.066,0.037-0.127,0.088-0.17l11.435-9.651c0.093-0.079,0.229-0.079,0.322,0l11.435,9.651 c0.051,0.042,0.083,0.104,0.088,0.17c0.006,0.066-0.015,0.131-0.058,0.182l-3.87,4.585C61.707,49.921,61.636,49.952,61.565,49.952 z"/></g><g><path fill="#472b29" d="M54,64.759c-5,0-9.619-2.512-12.355-6.721c-0.073-0.112-0.045-0.261,0.063-0.339l4.873-3.506 c0.057-0.041,0.127-0.055,0.196-0.042c0.068,0.014,0.128,0.056,0.164,0.115c0.762,1.256,1.832,2.287,3.094,2.981 c0.121,0.067,0.165,0.219,0.099,0.34c-0.067,0.121-0.221,0.164-0.34,0.099c-1.261-0.694-2.341-1.704-3.137-2.931l-4.461,3.21 c2.658,3.946,7.053,6.294,11.804,6.294c1.691,0,3.343-0.291,4.908-0.864c0.13-0.048,0.273,0.02,0.321,0.149 c0.047,0.13-0.019,0.273-0.149,0.321C57.459,64.458,55.75,64.759,54,64.759z M61.683,62.563c-0.083,0-0.164-0.042-0.211-0.117 c-0.074-0.117-0.039-0.271,0.078-0.345c0.277-0.174,0.548-0.358,0.813-0.551c0.112-0.081,0.268-0.057,0.349,0.055 c0.081,0.111,0.057,0.268-0.055,0.349c-0.274,0.2-0.555,0.39-0.841,0.57C61.774,62.55,61.729,62.563,61.683,62.563z M64.732,59.995 c-0.06,0-0.12-0.021-0.167-0.064c-0.103-0.092-0.111-0.25-0.018-0.353c0.456-0.505,0.881-1.051,1.266-1.625l-4.469-3.199 c-1.628,2.513-4.353,4.005-7.343,4.005c-0.432,0-0.867-0.032-1.293-0.094c-0.136-0.021-0.231-0.147-0.211-0.284 c0.021-0.136,0.144-0.224,0.284-0.211c0.402,0.06,0.813,0.089,1.22,0.089c2.904,0,5.542-1.493,7.059-3.993 c0.036-0.059,0.096-0.101,0.164-0.115c0.07-0.013,0.139,0.001,0.196,0.042l4.881,3.494c0.109,0.078,0.137,0.227,0.064,0.339 c-0.434,0.668-0.92,1.303-1.446,1.886C64.868,59.967,64.8,59.995,64.732,59.995z"/></g></svg>